<?xml version="1.0" encoding="UTF-8"?>
<svg width="263.2pt" version="1.1" xmlns="http://www.w3.org/2000/svg" height="247.2pt" viewBox="0 0 263.2 247.2" xmlns:xlink="http://www.w3.org/1999/xlink">
 <title>Page 1</title>
 <desc>Created with Sketch.</desc>
 <defs>
  <clipPath id="Clip0">
   <path d="M0 0 L289.816 0 L289.816 269.09 L0 269.09 L0 0 Z" transform="translate(-13.4879, -11.6067)"/>
  </clipPath>
  <clipPath id="Clip1">
   <path d="M0 0 L289.816 0 L289.816 269.09 L0 269.09 L0 0 Z" transform="translate(-13.4879, -11.6067)"/>
  </clipPath>
  <clipPath id="Clip2">
   <path d="M0 0 L289.816 0 L289.816 269.09 L0 269.09 L0 0 Z" transform="translate(-13.4879, -11.6067)"/>
  </clipPath>
  <path id="GlArialMT84" d="M2.59281 10 L2.59281 3.68656 L0.234375 3.68656 L0.234375 2.84172 L5.90828 2.84172 L5.90828 3.68656 L3.54 3.68656 L3.54 10 L2.59281 10 Z"/>
  <path id="GlArialMT77" d="M0.742188 10 L0.742188 2.84172 L2.16797 2.84172 L3.86234 7.91016 C3.86234 7.91016 4.09672 8.61812 4.20406 8.96969 C4.20406 8.96969 4.32625 8.57906 4.585 7.82219 L6.29891 2.84172 L7.57328 2.84172 L7.57328 10 L6.66016 10 L6.66016 4.00875 L4.58016 10 L3.72562 10 L1.65531 3.90625 L1.65531 10 L0.742188 10 Z"/>
 </defs>
 <g id="Background">
  <g id="Group3" clip-path="url(#Clip0)">
   <g id="Guide" clip-path="url(#Clip1)">
    <g id="Page-1" clip-path="url(#Clip2)">
     <path style="fill:#ffffff; fill-rule:evenodd;stroke:none;" id=" Rectangle" d="M6 32 C6 32 86.763 0 135 0 C183.237 0 206 23 206 23 L206 93 L183 172 L0 185 L6 32 Z" transform="translate(32, 26.2)"/>
     <path style="fill:#002369; fill-rule:evenodd;stroke:none;" id=" Fill-1" d="M9.36011 1.18723 C9.0094 0.680234 8.56533 0.371877 8.04466 0.272555 C6.63227 0 5.07624 0.907749 3.77038 2.76482 C2.09106 5.14969 0.837861 8.97471 0.416537 12.9961 C0 16.9862 0.397386 21.8333 2.88942 22.3634 L2.8978 22.3646 C3.03545 22.3911 3.1743 22.4039 3.31314 22.4039 C5.82314 22.4039 8.38938 18.2959 9.66652 12.1195 C10.4374 8.39264 10.8192 3.29377 9.36011 1.18723 Z" transform="translate(98.4747, 101.804)"/>
     <path style="fill:#002369; fill-rule:evenodd;stroke:none;" id=" Fill-3" d="M239.887 158.637 C242.86 154.766 243.092 148.369 241.418 144.438 C243.724 145.972 245.098 148.513 245.124 151.346 C245.15 154.488 243.161 157.233 239.887 158.637 L239.887 158.637 Z M231.287 160.021 C235.507 154.086 235.943 146.543 232.413 140.502 C235.742 142.067 238.277 145.934 238.394 149.734 C238.549 154.801 234.916 158.532 231.287 160.021 L231.287 160.021 Z M227.656 155.516 C226.62 158.321 224.995 160.749 222.825 162.731 C219.415 165.844 215.348 167.108 209.638 166.825 L209.4 166.813 L209.38 167.049 C209.317 167.831 209.227 171.738 209.19 173.391 C209.227 177.399 209.08 181.536 208.938 185.537 C208.883 187.069 208.83 188.591 208.785 190.093 C208.711 192.673 207.542 194.848 205.575 196.06 C203.843 197.129 201.761 197.287 200.008 196.484 C198.717 195.891 197.91 194.85 197.613 193.388 C197.162 191.182 197.202 188.733 197.263 185.024 C197.282 183.839 197.302 182.537 197.309 181.089 C197.318 179.319 197.387 177.582 197.446 176.049 C197.577 172.656 197.681 169.977 197.134 168.591 C196.875 167.933 196.358 167.534 195.751 167.521 C194.983 167.51 194.273 168.084 193.839 169.067 C193.419 170.016 193.008 171.275 192.585 172.917 C191.113 178.613 190.63 180.297 189.463 184.368 C189.151 185.459 188.79 186.721 188.347 188.278 C186.631 194.305 183.421 194.369 181.156 193.891 C179.684 193.58 177.691 192.26 176.567 187.734 C175.974 185.344 175.594 183.664 174.67 178.602 C174.069 175.318 173.389 171.596 172.857 169.887 C172.359 167.461 171.368 165.876 170.272 165.749 C169.762 165.692 169.011 165.927 168.334 167.39 C167.467 169.257 166.463 173.602 165.851 177.08 C165.456 179.326 164.961 181.838 164.389 184.748 C164.092 186.257 163.778 187.853 163.452 189.537 C162.502 194.46 161.009 196.502 157.748 197.336 C156.846 197.565 155.449 197.555 154.363 197.007 C152.565 196.1 151.654 194.454 151.582 191.971 C151.512 189.595 151.486 187.425 151.459 185.128 C151.409 180.921 151.355 176.57 151.015 170.852 C150.76 166.573 150.536 164.817 150.3 162.956 C150.185 162.063 150.068 161.139 149.949 159.91 C149.764 158.034 150.184 156.543 151.131 155.717 C151.659 155.256 152.321 155.017 153.047 155.017 C153.31 155.017 153.582 155.049 153.859 155.112 C155.429 155.473 156.945 157.121 157.915 159.521 C158.459 160.864 159.083 163.349 159.225 165.502 L159.321 166.961 L159.705 165.55 C161.172 160.171 163.308 155.841 165.564 153.672 C167.348 151.958 169.421 151.192 171.545 151.465 C174.268 151.81 177.03 153.86 178.931 156.948 C180.08 158.815 181.682 162.158 182.78 167.476 C183.224 169.623 183.28 170.039 183.329 170.407 C183.366 170.674 183.397 170.904 183.56 171.702 L183.745 172.613 L184.033 171.728 C184.811 169.327 185.446 167.414 185.447 167.409 C185.459 167.374 186.595 163.756 187.612 161.26 C189.327 157.051 191.839 154.223 194.876 153.085 C197.263 152.192 199.862 152.386 202.391 153.649 C203.77 154.339 204.837 154.965 205.777 155.519 C207.823 156.722 209.3 157.592 211.986 157.834 C218.985 158.464 223.131 154.759 225.376 151.536 C227.691 148.216 228.285 145.276 228.466 143.637 C229.029 146.223 229.33 150.98 227.656 155.516 L227.656 155.516 Z M144.65 139.922 C144.296 137.701 144.064 134.723 143.955 133.145 C143.847 131.549 143.741 129.387 143.582 126.115 C143.469 123.798 143.329 120.93 143.141 117.323 L143.05 115.569 C142.81 110.984 142.603 107.024 142.568 103.85 C142.55 102.265 142.926 101.085 143.685 100.341 C144.325 99.7141 145.247 99.397 146.424 99.397 C146.485 99.397 146.546 99.3982 146.609 99.3993 C148.539 99.4514 150.912 100.476 152.804 102.073 C155.48 104.332 157.189 107.879 157.746 112.327 C158.613 119.249 158.811 126.205 159.003 132.931 C159.075 135.428 159.005 137.53 158.787 139.545 C158.416 142.952 156.836 145.061 153.812 146.178 C153.191 146.408 151.732 146.722 150.783 146.779 C146.41 147.049 145.243 143.638 144.65 139.922 L144.65 139.922 Z M143.251 186.964 C140.517 195.32 133.769 199.395 125.638 197.598 C121.162 196.61 117.346 193.164 115.426 188.38 C113.669 183.997 113.076 178.852 113.665 173.09 C114.302 166.843 116.213 162.002 119.864 157.394 C122.119 154.548 124.27 153.138 127.058 152.683 C127.493 152.612 127.914 152.579 128.319 152.579 C130.853 152.579 132.743 153.886 133.571 155.356 L133.684 155.555 L133.892 155.455 C136.695 154.104 139.154 157.548 139.425 157.945 C141.065 160.348 142.386 164.526 143.029 166.802 C145.133 174.26 145.199 180.293 143.251 186.964 L143.251 186.964 Z M102.21 140.529 C100.078 136.28 99.4051 131.493 100.031 125.007 C100.758 117.484 102.826 111.787 106.539 107.077 L106.595 107.007 C106.758 106.8 107.03 106.454 107.175 106.293 C109.318 103.914 112.143 101.4 115.871 101.4 C116.802 101.4 117.791 101.557 118.838 101.912 L119.057 101.987 L119.144 101.772 C119.936 99.8036 120.866 98.6395 121.99 98.2137 C123.046 97.8117 124.318 98.011 125.989 98.8376 C129.923 100.783 132.292 104.024 133.231 108.749 C134.238 113.82 134.713 118.983 135.171 123.977 C135.341 125.838 135.513 127.705 135.712 129.583 C135.798 130.399 135.886 131.2 135.975 131.996 C136.252 134.515 136.516 136.895 136.704 139.617 C136.932 142.911 136.367 145.156 132.861 146.157 C129.657 147.074 127.502 146.017 126.267 142.93 C125.529 141.083 125.226 140.037 124.845 138.715 C124.739 138.349 124.627 137.965 124.5 137.537 L124.446 137.366 L124.273 137.357 C124.067 137.335 124.032 137.496 123.995 137.586 C123.74 138.184 123.26 139.042 122.567 140.134 C120.077 144.057 116.004 146.486 111.673 146.633 C107.563 146.766 104.283 144.662 102.21 140.529 L102.21 140.529 Z M106.88 192.409 C103.66 196.464 98.7132 197.336 96.0528 197.494 C90.6191 197.829 85.5565 195.054 82.1916 189.905 C79.9123 186.414 78.3466 180.692 78.2942 175.666 C78.2305 169.382 80.083 163.509 83.5128 159.129 C86.9448 154.744 91.7263 152.34 96.4636 152.34 C98.3366 152.34 100.204 152.716 101.976 153.495 C104.964 154.809 107.009 157.485 108.057 161.45 C108.763 164.122 108.387 167.88 107.806 169.399 C107.319 170.67 106.623 171.452 105.735 171.722 C104.657 172.05 103.695 171.931 102.872 171.369 C101.417 170.374 100.825 167.906 100.35 165.923 L100.222 165.388 C99.8318 163.759 99.2981 161.528 97.8518 161.012 C96.4874 160.524 95.3381 161.881 94.7237 163.315 L94.7237 163.316 C93.5083 166.161 92.7437 169.805 92.5138 173.855 C92.4341 175.248 92.3351 176.981 92.8267 180.358 C93.2318 183.138 93.976 185.244 95.106 186.793 C95.8969 187.881 97.1053 188.603 98.4185 188.774 C99.8296 188.956 101.254 188.511 102.533 187.476 C102.571 187.445 102.606 187.413 102.643 187.38 C102.677 187.35 102.712 187.317 102.751 187.288 C103.075 187.043 103.412 186.741 103.768 186.421 C104.454 185.805 105.165 185.169 105.897 184.829 C106.933 184.35 107.605 184.444 108.136 185.147 C109.356 186.864 108.479 190.397 106.88 192.409 L106.88 192.409 Z M78.4615 90.4317 C76.5122 90.7397 74.9601 91.0783 73.4591 91.4044 C72.8196 91.5437 72.1858 91.6819 71.5292 91.8155 C70.8419 91.9559 70.2217 92.0884 69.6152 92.2186 C68.3043 92.4995 67.0662 92.7645 65.3229 93.0668 L64.5878 93.1959 C62.0673 93.6409 59.2111 94.146 56.826 93.8221 C55.8906 93.6942 54.64 93.3397 53.9982 92.3692 C53.5658 91.7158 53.5499 91.0171 53.9436 90.0331 C54.2998 89.1486 55.3512 88.014 56.4994 87.2722 C58.3247 86.0945 60.1453 85.2475 62.3188 84.3381 C65.2842 83.097 71.2834 80.8956 74.5959 79.728 C78.0575 78.5073 83.5128 76.9864 85.0034 76.6003 C87.6526 75.9129 93.5994 74.6401 96.5261 74.289 C101.385 73.7058 103.601 73.4397 108.803 73.5756 C112.321 73.6719 114.866 74.4136 116.372 75.7782 C117.651 76.9389 118.258 77.9717 118.541 79.4608 C118.663 80.1153 118.629 80.9544 118.454 81.5965 C117.989 83.2963 116.232 83.9508 114.838 84.2022 C113.588 84.4264 112.3 84.5714 111.055 84.7107 C110.353 84.79 109.652 84.8692 108.951 84.9621 L108.213 85.0595 C105.474 85.423 102.64 85.7989 99.8569 86.2157 C97.7323 86.5339 96.0437 86.8226 93.4651 87.2654 L93.2443 87.3028 L93.2626 87.5247 C93.2751 87.6912 93.2808 87.8996 93.2853 88.0978 C93.2887 88.2438 93.2933 88.3854 93.299 88.5032 C94.1752 105.57 93.093 121.489 92.0097 135.072 C91.8595 136.965 91.4646 139.176 90.9821 140.839 C90.2015 143.525 88.5026 146.855 84.8339 147.451 C82.3225 147.861 80.1798 146.576 79.3764 144.184 C78.7881 142.43 78.3978 139.323 78.3329 135.872 C78.1429 125.602 78.35 113.883 78.5502 102.549 C78.6208 98.5511 78.6913 94.5729 78.7448 90.6751 L78.7482 90.3864 L78.4615 90.4317 Z M75.3959 193.89 C74.4355 195.322 72.5169 196.345 69.8439 196.85 C67.1072 197.367 65.6188 196.331 65.0248 193.484 C64.6777 191.886 64.9178 190.395 65.7189 189.172 C66.5644 187.883 68.013 186.974 69.7996 186.61 C73.0939 185.943 75.3436 187.309 75.9865 190.367 C76.2676 191.702 76.0684 192.887 75.3959 193.89 L75.3959 193.89 Z M143.214 87.4557 C143.771 84.5284 145.656 82.9396 148.482 82.9396 C148.988 82.9396 149.523 82.9905 150.086 83.0936 C152.103 83.4628 153.752 84.4525 154.73 85.8827 C155.659 87.2394 155.963 88.9097 155.608 90.7159 C155.002 93.9297 153.35 95.1323 150.255 94.6092 C147.247 94.103 145.069 92.9955 143.959 91.4067 C143.179 90.2935 142.929 88.9652 143.214 87.4557 L143.214 87.4557 Z M166.793 93.1257 C167.816 82.627 169.835 74.9141 173.342 68.1219 C175.571 63.8039 178.017 60.8087 181.04 58.6945 C181.938 58.066 182.965 57.5904 183.972 57.168 C180.817 65.4675 180.237 75.3931 180.087 84.9032 C179.964 92.6535 180.232 99.0369 181.043 107.674 C181.845 115.814 182.426 119.237 183.668 126.206 C183.997 128.052 184.39 129.855 184.772 131.599 C185.471 134.794 186.131 137.813 186.324 140.752 C186.459 142.819 185.945 144.485 184.793 145.705 C183.594 146.979 181.703 147.708 179.605 147.708 L179.591 147.708 C177.406 147.705 175.304 146.97 173.671 145.639 C170.718 143.232 168.722 138.858 167.567 132.268 C167.26 130.507 167.041 128.499 166.79 126.174 L166.655 124.927 C165.667 114.313 165.717 103.02 166.793 93.1257 L166.793 93.1257 Z M193.486 101.278 C195.898 98.1174 200 96.1255 204.459 95.95 C206.339 95.8752 207.971 96.1662 209.72 96.8967 C212.667 98.1253 214.739 100.185 216.24 103.377 C217.171 105.354 217.315 106.902 216.706 108.396 C216.302 109.392 215.405 110.119 214.42 110.249 C213.586 110.362 212.289 110.107 210.888 108.271 C209.898 106.971 209.186 106.075 208.375 105.52 C207.786 105.029 206.979 104.849 206.441 104.887 C205.582 104.949 204.875 105.459 204.556 106.249 C204.141 107.268 204.121 108.516 204.488 110.172 C205.186 113.78 208.015 116.927 210.969 119.789 C211.585 120.386 212.24 120.982 212.874 121.559 C214.903 123.404 217.002 125.312 218.467 127.811 C221.331 132.694 221.44 140.247 215.999 144.624 C213.485 146.645 209.608 147.63 207.074 147.69 C202.11 147.746 198.529 146.583 195.428 143.901 C192.795 141.625 191.401 137.676 191.188 134.774 C191.117 133.815 191.119 132.721 191.68 131.875 C191.947 131.469 192.28 131.186 192.718 130.987 C192.979 130.877 193.243 130.824 193.534 130.824 C193.614 130.824 193.699 130.828 193.785 130.838 C195.532 131.006 196.846 132.946 197.207 133.537 C199.148 136.713 200.977 138.176 202.807 138.008 C203.318 137.962 204.09 137.607 204.517 137.04 C205.172 136.128 205.014 135.034 204.767 134.278 C204.255 132.707 203.171 131.087 201.252 129.022 C200.078 127.759 199.165 126.821 198.361 125.994 C197.475 125.083 196.71 124.297 195.91 123.393 C189.61 116.281 188.659 107.6 193.486 101.278 L193.486 101.278 Z M273.616 103.988 C258.656 32.8742 204.704 0 128.422 15.5289 C45.2123 32.4687 0 97.6758 17.0564 176.186 C29.6977 236.713 61.6474 269.09 131.544 255.881 C236.938 235.967 289.816 181.097 273.616 103.988 L273.616 103.988 Z" transform="translate(-13.4879, -11.6067)"/>
     <path style="fill:#002369; fill-rule:evenodd;stroke:none;" id=" Fill-6" d="M3.88995 0.151708 L3.70628 0 L3.55671 0.187404 C1.61119 2.61361 0.364029 6.82238 0.133074 11.7373 C0 14.5795 0.230955 17.0347 0.860033 19.4643 C0.901825 19.6249 1.89273 23.3808 3.5941 24.0178 C3.83166 24.136 4.07361 24.1951 4.31666 24.1951 C4.52892 24.1951 4.74228 24.1494 4.95454 24.0601 C6.00264 23.6184 6.80548 22.1694 7.2091 20.9624 C7.62812 19.7075 8.01415 18.3388 8.13952 15.3972 C8.2429 12.9777 7.92836 8.85704 6.7065 5.2116 C5.94105 2.96945 4.78297 0.889051 3.88995 0.151708 Z" transform="translate(112.758, 152.436)"/>
    </g>
   </g>
  </g>
  <g transform="translate(229.012, 5.89332)">
   <use style="fill:#002369;stroke:none;" xlink:href="#GlArialMT84" transform="matrix(2 0 0 2 1.68652 -5.68359)"/>
   <use style="fill:#002369;stroke:none;" xlink:href="#GlArialMT77" transform="matrix(2 0 0 2 13.9033 -5.68359)"/>
   <path style="fill:none; stroke:none;" d="M0 0 L33 0 L33 25.5 L0 25.5 L0 0 Z"/>
  </g>
 </g>
</svg>
